<svg width="64" height="64" viewBox="0 0 64 64" fill="none" xmlns="http://www.w3.org/2000/svg">
    <rect width="64" height="64" rx="32" fill="#D2D8E1"/>
    <path d="M40.5 32C40.5 30.0191 39.7334 28.226 38.4829 26.8883C37.6369 25.9832 36.3333 26.7411 36.3333 27.9801V36.0196C36.3333 37.2546 37.6301 38.0132 38.4764 37.1136C39.7308 35.7803 40.5 33.9844 40.5 32ZM19.6667 27C18.7462 27 18 27.7462 18 28.6667V35.3333C18 36.2538 18.7462 37 19.6667 37H23.9763C24.4183 37 24.8423 37.1756 25.1548 37.4882L30.1548 42.4882C31.2048 43.5381 33 42.7945 33 41.3097V22.6904C33 21.2055 31.2048 20.4619 30.1548 21.5119L25.1548 26.5119C24.8423 26.8244 24.4183 27 23.9763 27H19.6667Z" fill="white"/>
    <path fill-rule="evenodd" clip-rule="evenodd" d="M36.3806 21.8056C36.5985 20.9113 37.5001 20.3629 38.3944 20.5808C43.1102 21.7295 46.3333 26.578 46.3333 32C46.3333 37.4221 43.1102 42.2706 38.3944 43.4193C37.5001 43.6372 36.5985 43.0888 36.3806 42.1944C36.1628 41.3001 36.7112 40.3985 37.6055 40.1807C40.4972 39.4763 42.9999 36.2538 42.9999 32C42.9999 27.7463 40.4972 24.5238 37.6055 23.8194C36.7112 23.6015 36.1628 22.7 36.3806 21.8056Z" fill="white"/>
</svg>
